<svg xmlns="http://www.w3.org/2000/svg" xmlns:xlink="http://www.w3.org/1999/xlink" version="1.1" x="0px" y="0px" style="enable-background:new 0 0 1024 768;" xml:space="preserve" viewBox="0 0 1024 768">
<style type="text/css">
	.st0{fill:#FFFFFF;}
</style>
<g id="Layer_2">
	<rect class="st0" width="1024" height="768"/>
</g>
<g id="Layer_1">
	<g>
		<g>
			<g>
				<path d="M154.83,431.26h39.79c18.64,0,18.64,0,22.12,2.11c4.13,2.51,5.35,6.16,5.35,15.48c0,7.78-0.81,10.86-3.48,13.13      c-1.62,1.3-3.16,1.94-6.56,2.43c8.34,0.97,9.8,3.4,9.48,15.88v5.02h-16.21v-2.84c0-6.08-0.32-8.02-1.62-9.4      c-1.13-1.3-2.35-1.46-9.16-1.46h-23.26v13.69h-16.45V431.26z M194.46,458.08c8.1-0.16,8.1-0.16,9.24-0.81      c1.46-0.89,1.94-2.51,1.94-6c0-3.49-0.65-5.11-2.19-5.84c-1.21-0.57-1.38-0.57-9-0.65h-23.18v13.29H194.46z"/>
				<path d="M336.34,434.18c4.13,3.16,5.35,8.59,5.35,24.07c0,15.56-1.22,20.91-5.35,24.15c-4.13,3.08-9.4,3.73-31.61,3.73      c-22.53,0-27.79-0.65-31.93-3.73c-4.13-3.24-5.35-8.67-5.35-24.48c0-14.99,1.3-20.58,5.35-23.74c4.14-3.08,9.32-3.73,31.77-3.73      C327.02,430.45,332.21,431.1,336.34,434.18z M285.37,447.63c-1.13,1.94-1.46,4.94-1.46,12.07c0,6.73,0.49,8.92,2.43,10.45      c2.11,1.62,5.02,1.94,18.39,1.94c13.05,0,15.97-0.32,18.08-1.94c1.86-1.46,2.43-3.89,2.43-10.37c0-7.7-0.48-10.86-1.86-12.72      c-1.7-2.35-3.65-2.59-18.8-2.59C288.69,444.47,286.99,444.71,285.37,447.63z"/>
				<path d="M456.42,434.18c4.13,3.16,5.35,8.59,5.35,24.07c0,15.56-1.22,20.91-5.35,24.15c-4.13,3.08-9.4,3.73-31.61,3.73      c-22.53,0-27.79-0.65-31.93-3.73c-4.13-3.24-5.35-8.67-5.35-24.48c0-14.99,1.3-20.58,5.35-23.74c4.14-3.08,9.32-3.73,31.77-3.73      C447.1,430.45,452.29,431.1,456.42,434.18z M405.45,447.63c-1.13,1.94-1.46,4.94-1.46,12.07c0,6.73,0.49,8.92,2.43,10.45      c2.11,1.62,5.02,1.94,18.39,1.94c13.05,0,15.97-0.32,18.07-1.94c1.86-1.46,2.43-3.89,2.43-10.37c0-7.7-0.48-10.86-1.86-12.72      c-1.71-2.35-3.65-2.59-18.8-2.59C408.77,444.47,407.07,444.71,405.45,447.63z"/>
				<path d="M565.88,431.26v12.72H525.2v10.21h38.74l-0.08,12.4H525.2v18.72h-16.45v-54.05H565.88z"/>
				<path d="M627.38,431.26v54.05h-17.26v-54.05H627.38z"/>
				<path d="M704.35,431.26l28.28,40.28h1.7l-0.4-40.28h16.77v54.05h-28.6l-28.45-40.36h-1.78l0.4,40.36H675.5v-54.05H704.35z"/>
				<path d="M869.17,454.68v1.46c0,5.19-0.32,14.59-0.57,17.18c-0.65,6.32-4.13,10.05-10.62,11.35c-5.59,1.14-11.35,1.46-25.93,1.46      c-18.48,0-24.31-0.73-28.85-3.81c-4.78-3.16-5.67-7.13-5.67-24.88c0-14.59,1.38-20.02,5.92-23.18      c3.89-2.76,12.64-3.81,31.53-3.81c20.02,0,27.55,1.38,31.12,5.59c2.27,2.68,2.91,6,3,13.94h-16.45      c-0.08-3.08-0.24-3.81-1.29-4.54c-1.62-1.13-5.51-1.46-17.83-1.46c-19.45,0-19.53,0.08-19.53,14.1c0,9,0.49,11.99,2.35,13.37      c1.3,1.05,2.67,1.38,7.05,1.54l10.05,0.16c14.02,0,17.02-0.24,18.56-1.62c0.89-0.89,1.13-1.86,1.13-6.08h-21.64v-10.78H869.17z"/>
			</g>
		</g>
		<rect x="154.83" y="413.78" width="714.34" height="6.99"/>
		<g>
			<path d="M403.52,281.87l63.95,91.07h3.85l-0.92-91.07h37.93V404.1h-64.68l-64.32-91.26h-4.03l0.92,91.26h-37.93V281.87H403.52z"/>
			<path d="M562.04,281.87l39.77,48.93l38.12-48.93h48.56l-66.89,78.98v43.25h-38.49v-43.25l-70-78.98H562.04z"/>
			<path d="M739.25,281.87l37.56,42.88l37.93-42.88h51.49l-58.64,60.47l61.57,61.75h-52.22l-40.13-43.98l-39.77,43.98h-53.51     l62.49-61.75l-57.72-60.47H739.25z"/>
			<path d="M223.85,281.87h101.58v32.35c0,9.62-2.86,25.29-8.58,32.96l-39.58,46.39c-5.2,7.02-12.15,10.53-20.86,10.53H154.83     v-32.35c0-9.62,2.86-18.26,8.58-25.93l39.58-53.42C208.18,285.38,215.14,281.87,223.85,281.87z M286.82,368.81v-53.79h-91.83     l-1.56,2.14v53.79h92.02L286.82,368.81z"/>
		</g>
	</g>
</g>
</svg>