<svg xmlns="http://www.w3.org/2000/svg" xml:space="preserve" viewBox="154 281 715 205"><path d="M154.83 431.26h39.79c18.64 0 18.64 0 22.12 2.11 4.13 2.51 5.35 6.16 5.35 15.48 0 7.78-.81 10.86-3.48 13.13-1.62 1.3-3.16 1.94-6.56 2.43 8.34.97 9.8 3.4 9.48 15.88v5.02h-16.21v-2.84c0-6.08-.32-8.02-1.62-9.4-1.13-1.3-2.35-1.46-9.16-1.46h-23.26v13.69h-16.45v-54.04zm39.63 26.82c8.1-.16 8.1-.16 9.24-.81 1.46-.89 1.94-2.51 1.94-6s-.65-5.11-2.19-5.84c-1.21-.57-1.38-.57-9-.65h-23.18v13.29h23.19zM336.34 434.18c4.13 3.16 5.35 8.59 5.35 24.07 0 15.56-1.22 20.91-5.35 24.15-4.13 3.08-9.4 3.73-31.61 3.73-22.53 0-27.79-.65-31.93-3.73-4.13-3.24-5.35-8.67-5.35-24.48 0-14.99 1.3-20.58 5.35-23.74 4.14-3.08 9.32-3.73 31.77-3.73s27.64.65 31.77 3.73zm-50.97 13.45c-1.13 1.94-1.46 4.94-1.46 12.07 0 6.73.49 8.92 2.43 10.45 2.11 1.62 5.02 1.94 18.39 1.94 13.05 0 15.97-.32 18.08-1.94 1.86-1.46 2.43-3.89 2.43-10.37 0-7.7-.48-10.86-1.86-12.72-1.7-2.35-3.65-2.59-18.8-2.59-15.89 0-17.59.24-19.21 3.16zM456.42 434.18c4.13 3.16 5.35 8.59 5.35 24.07 0 15.56-1.22 20.91-5.35 24.15-4.13 3.08-9.4 3.73-31.61 3.73-22.53 0-27.79-.65-31.93-3.73-4.13-3.24-5.35-8.67-5.35-24.48 0-14.99 1.3-20.58 5.35-23.74 4.14-3.08 9.32-3.73 31.77-3.73s27.64.65 31.77 3.73zm-50.97 13.45c-1.13 1.94-1.46 4.94-1.46 12.07 0 6.73.49 8.92 2.43 10.45 2.11 1.62 5.02 1.94 18.39 1.94 13.05 0 15.97-.32 18.07-1.94 1.86-1.46 2.43-3.89 2.43-10.37 0-7.7-.48-10.86-1.86-12.72-1.71-2.35-3.65-2.59-18.8-2.59-15.88 0-17.58.24-19.2 3.16zM565.88 431.26v12.72H525.2v10.21h38.74l-.08 12.4H525.2v18.72h-16.45v-54.05h57.13zM627.38 431.26v54.05h-17.26v-54.05h17.26zM704.35 431.26l28.28 40.28h1.7l-.4-40.28h16.77v54.05h-28.6l-28.45-40.36h-1.78l.4 40.36H675.5v-54.05h28.85zM869.17 454.68v1.46c0 5.19-.32 14.59-.57 17.18-.65 6.32-4.13 10.05-10.62 11.35-5.59 1.14-11.35 1.46-25.93 1.46-18.48 0-24.31-.73-28.85-3.81-4.78-3.16-5.67-7.13-5.67-24.88 0-14.59 1.38-20.02 5.92-23.18 3.89-2.76 12.64-3.81 31.53-3.81 20.02 0 27.55 1.38 31.12 5.59 2.27 2.68 2.91 6 3 13.94h-16.45c-.08-3.08-.24-3.81-1.29-4.54-1.62-1.13-5.51-1.46-17.83-1.46-19.45 0-19.53.08-19.53 14.1 0 9 .49 11.99 2.35 13.37 1.3 1.05 2.67 1.38 7.05 1.54l10.05.16c14.02 0 17.02-.24 18.56-1.62.89-.89 1.13-1.86 1.13-6.08H831.5v-10.78h37.67zM403.52 281.87l63.95 91.07h3.85l-.92-91.07h37.93V404.1h-64.68l-64.32-91.26h-4.03l.92 91.26h-37.93V281.87h65.23zM562.04 281.87l39.77 48.93 38.12-48.93h48.56l-66.89 78.98v43.25h-38.49v-43.25l-70-78.98h48.93z"/><path d="m739.25 281.87 37.56 42.88 37.93-42.88h51.49l-58.64 60.47 61.57 61.75h-52.22l-40.13-43.98-39.77 43.98h-53.51l62.49-61.75-57.72-60.47h50.95zM223.85 281.87h101.58v32.35c0 9.62-2.86 25.29-8.58 32.96l-39.58 46.39c-5.2 7.02-12.15 10.53-20.86 10.53H154.83v-32.35c0-9.62 2.86-18.26 8.58-25.93l39.58-53.42c5.19-7.02 12.15-10.53 20.86-10.53zm62.97 86.94v-53.79h-91.83l-1.56 2.14v53.79h92.02l1.37-2.14z"/></svg>
